<svg viewBox="0 0 200 200" xmlns="http://www.w3.org/2000/svg">
  <!-- Walrus Head Silhouette -->
  <g transform="translate(100, 100)">
    <!-- Main head -->
    <ellipse cx="0" cy="0" rx="50" ry="40" fill="#FFFFFF" stroke="#C4B5FD" stroke-width="2"/>
    
    <!-- Tusks -->
    <path d="M -18 18 Q -22 38, -18 50" stroke="#FFFFFF" stroke-width="5" fill="none" stroke-linecap="round"/>
    <path d="M 18 18 Q 22 38, 18 50" stroke="#FFFFFF" stroke-width="5" fill="none" stroke-linecap="round"/>
    
    <!-- Snout -->
    <ellipse cx="0" cy="12" rx="28" ry="20" fill="#E0E7FF" stroke="#FFFFFF" stroke-width="1.5"/>
    
    <!-- Eyes -->
    <circle cx="-18" cy="-8" r="4" fill="#1E293B"/>
    <circle cx="18" cy="-8" r="4" fill="#1E293B"/>
    
    <!-- Whisker dots -->
    <circle cx="-25" cy="8" r="2" fill="#FFFFFF"/>
    <circle cx="-30" cy="12" r="2" fill="#FFFFFF"/>
    <circle cx="25" cy="8" r="2" fill="#FFFFFF"/>
    <circle cx="30" cy="12" r="2" fill="#FFFFFF"/>
  </g>
  
  <!-- Document/Signature Element -->
  <g transform="translate(140, 60)">
    <!-- Document -->
    <rect x="0" y="0" width="35" height="45" rx="2" fill="#FFFFFF" stroke="#C4B5FD" stroke-width="2"/>
    <!-- Signature lines -->
    <line x1="6" y1="12" x2="29" y2="12" stroke="#A78BFA" stroke-width="1.5"/>
    <line x1="6" y1="20" x2="29" y2="20" stroke="#A78BFA" stroke-width="1.5"/>
    <!-- Signature scribble -->
    <path d="M 8 30 Q 12 28, 16 30 T 28 30" stroke="#C4B5FD" stroke-width="2" fill="none" stroke-linecap="round"/>
    <!-- Checkmark -->
    <path d="M 25 36 L 29 40 L 34 32" stroke="#10B981" stroke-width="2.5" fill="none" stroke-linecap="round" stroke-linejoin="round"/>
  </g>
</svg>

